<svg version="1.1" id="Layer_1" xmlns="http://www.w3.org/2000/svg" xmlns:xlink="http://www.w3.org/1999/xlink" x="0px" y="0px"
	 width="100%" viewBox="0 0 512 512" enable-background="new 0 0 512 512" xml:space="preserve">
<path fill="#8D8CBD" opacity="1.000000" stroke="none" 
	d="
M1.000000,191.000000 
	C1.000000,127.333336 1.000000,64.166664 1.000000,1.000000 
	C171.666672,1.000000 342.333344,1.000000 513.000000,1.000000 
	C513.000000,171.666672 513.000000,342.333344 513.000000,513.000000 
	C342.333344,513.000000 171.666672,513.000000 1.000000,513.000000 
	C1.000000,405.833344 1.000000,298.666656 1.000000,191.000000 
M157.990799,217.979355 
	C150.826782,217.977448 143.657181,218.142136 136.501160,217.901978 
	C133.022263,217.785202 131.223297,218.850418 129.814911,222.208740 
	C120.608757,244.161163 111.151291,266.008240 101.758041,287.882050 
	C101.084129,289.451355 100.267921,290.959564 99.146935,293.256104 
	C98.057411,290.900055 97.337654,289.442139 96.699684,287.949249 
	C87.345406,266.059631 78.033081,244.151947 68.592880,222.299500 
	C67.890648,220.673950 66.329788,218.248611 65.099800,218.206863 
	C55.210636,217.871231 45.305058,218.018997 34.905464,218.018997 
	C35.399536,219.542328 35.582088,220.332611 35.903004,221.062012 
	C50.987923,255.346664 66.048439,289.642273 81.305069,323.850403 
	C81.958862,325.316315 84.399635,326.780914 86.072372,326.858551 
	C93.220856,327.190369 100.400681,326.812653 107.554268,327.084015 
	C110.936348,327.212280 112.578552,326.053833 113.864937,322.956421 
	C119.802719,308.659119 125.976212,294.459625 132.078964,280.230957 
	C136.073151,270.918457 140.090805,261.616028 144.491272,251.395538 
	C145.642563,253.859680 146.432724,255.447586 147.136551,257.072876 
	C156.662567,279.070496 166.230850,301.050140 175.627106,323.103119 
	C176.846054,325.963928 178.266342,327.202301 181.480530,327.076691 
	C187.968063,326.823151 194.486053,326.749298 200.964767,327.097778 
	C204.776337,327.302795 206.479904,325.815033 207.994965,322.492981 
	C223.123566,289.320892 238.421204,256.225891 253.654724,223.101624 
	C254.328384,221.636795 254.843887,220.099274 255.676971,217.973160 
	C247.074310,217.973160 239.107727,218.224274 231.167603,217.874634 
	C226.730835,217.679260 224.490479,218.931686 222.680496,223.288101 
	C213.675552,244.961975 204.222610,266.449799 194.913635,287.997192 
	C194.241943,289.551971 193.460541,291.059357 192.307236,293.474304 
	C191.174637,290.782623 190.465439,289.121857 189.775253,287.453186 
	C180.804337,265.763733 171.878174,244.055496 162.786743,222.416672 
	C162.064682,220.698044 160.202454,219.458435 157.990799,217.979355 
M181.001160,136.499969 
	C181.001160,98.046463 181.001160,59.592949 181.001160,20.707676 
	C170.884857,20.707676 161.264664,20.604467 151.655151,20.877882 
	C150.759323,20.903370 149.229309,23.291285 149.187683,24.619705 
	C148.947784,32.276543 149.066818,39.944637 149.065292,47.608921 
	C149.064301,52.495121 149.065109,57.381321 149.065109,63.223389 
	C132.381958,50.589828 114.275841,47.771667 95.192383,48.921589 
	C66.768639,50.634335 47.500313,68.407356 43.434525,96.605698 
	C39.094040,126.709206 54.645782,151.592926 83.463745,159.374329 
	C104.617615,165.086288 125.383163,163.061020 145.289185,153.609497 
	C146.687790,152.945450 148.072052,152.251160 149.841690,151.385727 
	C150.069336,154.607452 150.241180,157.039413 150.427597,159.677826 
	C160.671860,159.677826 170.565674,159.677826 181.001160,159.677826 
	C181.001160,152.076263 181.001160,144.788101 181.001160,136.499969 
M338.882080,78.663406 
	C329.710052,63.906391 316.579651,54.489437 299.709656,50.753368 
	C280.516541,46.502800 261.567322,48.078907 243.380035,55.578716 
	C220.993591,64.810097 209.722305,82.638588 209.999985,107.336288 
	C210.249954,129.571503 222.712433,147.339081 244.484955,155.844437 
	C263.136810,163.130707 282.435486,164.040421 301.954285,160.294220 
	C315.920807,157.613632 328.731598,152.259033 339.086243,142.119781 
	C343.261597,138.031296 346.574066,133.352829 348.004028,126.994713 
	C336.806427,126.994713 326.162323,126.942284 315.520447,127.074173 
	C314.432281,127.087662 312.982147,127.941704 312.339325,128.855469 
	C308.758728,133.945251 303.707855,137.206436 297.846283,137.769852 
	C288.493530,138.668854 278.927094,139.371140 269.639618,138.383423 
	C259.263916,137.279953 250.303787,132.177994 244.575943,122.882629 
	C242.928635,120.209305 242.024857,117.077812 240.438202,113.353714 
	C243.832672,113.353714 245.977554,113.355225 248.122437,113.353493 
	C279.430542,113.328293 310.738831,113.249695 342.046570,113.345779 
	C345.855469,113.357468 347.253143,112.368446 347.208832,108.322807 
	C347.094604,97.891342 344.420532,88.282745 338.882080,78.663406 
M312.291962,302.352051 
	C302.889374,298.088776 296.498016,291.347656 293.708435,280.353760 
	C296.590088,280.353760 298.555573,280.355103 300.521027,280.353546 
	C331.852936,280.328674 363.185150,280.230896 394.516388,280.363892 
	C398.762054,280.381897 400.253723,279.397858 400.217194,274.846252 
	C400.015167,249.677795 383.082245,226.830536 357.704285,219.129440 
	C337.033630,212.856812 316.412445,214.513184 296.524323,222.537903 
	C274.060516,231.601868 262.743896,249.564209 262.999756,274.236481 
	C263.231018,296.536407 275.652161,314.300354 297.436829,322.825928 
	C316.099670,330.129761 335.412750,331.043915 354.947266,327.295685 
	C368.924713,324.613739 381.745056,319.254974 392.103760,309.102356 
	C396.272064,305.016968 399.573669,300.342194 401.001099,293.996216 
	C389.761108,293.996216 379.108490,293.942688 368.458221,294.077911 
	C367.377991,294.091644 365.954041,294.987244 365.298859,295.907379 
	C361.578003,301.132812 356.302551,303.708984 350.290985,305.037964 
	C337.638916,307.834930 325.157135,307.539093 312.291962,302.352051 
M109.000732,436.605225 
	C108.983086,463.638031 121.841042,481.706024 147.516708,490.310059 
	C164.959778,496.155273 182.808243,496.761841 200.786011,493.346832 
	C213.564606,490.919403 225.387833,486.144012 235.418518,477.613159 
	C240.800247,473.036194 245.067657,467.657654 247.089905,459.973724 
	C238.885773,459.973724 231.263428,460.129700 223.650803,459.924805 
	C217.473724,459.758484 212.228439,459.967865 207.465073,465.588409 
	C202.572815,471.361053 194.485519,471.840118 187.124954,472.457947 
	C174.546860,473.513733 162.465714,472.019348 151.782806,464.625702 
	C145.588593,460.338654 141.660507,454.480774 139.741486,446.353760 
	C142.600449,446.353760 144.567322,446.355164 146.534195,446.353607 
	C177.856796,446.328766 209.179672,446.232819 240.501633,446.362183 
	C244.720001,446.379578 246.256561,445.438354 246.218613,440.863983 
	C246.017090,416.564240 230.305008,394.250671 206.088272,385.985962 
	C183.675751,378.336975 161.302628,380.169830 139.865829,389.781525 
	C120.330093,398.540833 110.135727,414.206146 109.000732,436.605225 
M408.874695,49.191498 
	C408.874695,39.983597 408.874695,30.775698 408.874695,20.876310 
	C398.399719,24.353260 389.199249,27.238312 380.168915,30.582863 
	C378.781219,31.096811 377.470398,33.674576 377.343903,35.387917 
	C376.971039,40.439171 377.210785,45.535648 377.210785,51.160801 
	C371.683990,51.160801 367.104858,51.160801 362.421936,51.160801 
	C362.421936,58.799683 362.421936,65.851936 362.421936,73.493828 
	C366.244232,73.493828 369.714569,73.589867 373.176880,73.464600 
	C376.147949,73.357094 377.374268,74.553894 377.294556,77.570961 
	C377.158173,82.731293 377.203918,87.898941 377.280273,93.061935 
	C377.489532,107.211159 377.033813,121.417267 378.161072,135.495178 
	C379.992889,158.372299 404.292175,170.330139 424.238159,158.654861 
	C425.975281,157.638031 428.298798,155.736542 428.396057,154.127838 
	C428.841888,146.753555 428.592163,139.337234 428.592163,131.398453 
	C426.545776,132.315063 425.235626,132.969421 423.877045,133.499649 
	C413.730072,137.459717 408.834991,134.307785 408.766846,123.574303 
	C408.670624,108.415848 408.814117,93.255699 408.682465,78.097771 
	C408.652527,74.649361 409.827332,73.300812 413.297455,73.439415 
	C418.063049,73.629753 422.841949,73.487045 427.648010,73.487045 
	C427.648010,65.611641 427.648010,58.535507 427.648010,50.969604 
	C425.498199,50.969604 423.697266,51.053860 421.906830,50.952763 
	C417.656128,50.712757 413.410400,50.384933 408.874695,49.191498 
M306.893494,476.497223 
	C306.896210,464.331329 306.835297,452.164978 306.919678,439.999634 
	C307.003052,427.977356 312.174011,419.865692 323.678375,416.138397 
	C331.017181,413.760681 338.913239,412.939728 346.628021,411.961761 
	C349.945892,411.541138 351.297058,410.730438 351.180817,407.220398 
	C350.949280,400.228485 350.909241,393.215454 351.188751,386.227112 
	C351.348969,382.221222 349.622040,381.549591 346.131195,381.665985 
	C329.848694,382.208862 314.460663,384.516541 304.640747,400.459320 
	C304.640747,395.069489 304.640747,389.679657 304.640747,384.464020 
	C294.109711,384.464020 284.225525,384.464020 274.533203,384.464020 
	C274.533203,420.859222 274.533203,456.761444 274.533203,492.673798 
	C285.432831,492.673798 295.860229,492.673798 306.893463,492.673798 
	C306.893463,487.405334 306.893463,482.450195 306.893494,476.497223 
M77.153488,492.981293 
	C78.065826,491.589020 79.770973,490.199280 79.775452,488.804108 
	C79.915413,445.155365 79.860435,401.506012 79.946442,357.856995 
	C79.953087,354.485138 78.646912,353.549469 75.522720,353.606110 
	C68.028229,353.742065 60.514118,353.937714 53.038010,353.541565 
	C48.126743,353.281281 46.938366,354.980438 46.959782,359.733826 
	C47.151169,402.215942 47.088520,444.699219 47.116604,487.182129 
	C47.117779,488.958282 47.276176,490.734283 47.384708,492.998016 
	C57.292686,492.998016 66.752434,492.998016 77.153488,492.981293 
M438.581787,217.977142 
	C436.154999,217.977142 433.728241,217.977142 431.202271,217.977142 
	C431.202271,254.665222 431.202271,290.555237 431.202271,326.607117 
	C441.940063,326.607117 452.316071,326.607117 462.783905,326.607117 
	C462.783905,290.322693 462.783905,254.430847 462.783905,217.977127 
	C454.800903,217.977127 447.180298,217.977127 438.581787,217.977142 
M461.638947,204.954773 
	C465.559784,197.263199 463.419769,190.461472 455.684387,186.811218 
	C449.239777,183.770081 442.733978,183.916046 436.636322,187.749847 
	C428.487885,192.873093 428.226135,202.801315 435.939392,208.533234 
	C443.536163,214.178482 454.070709,212.930069 461.638947,204.954773 
z"/>
<path fill="#FEFEFF" opacity="1.000000" stroke="none" 
	d="
M158.430450,217.987793 
	C160.202454,219.458435 162.064682,220.698044 162.786743,222.416672 
	C171.878174,244.055496 180.804337,265.763733 189.775253,287.453186 
	C190.465439,289.121857 191.174637,290.782623 192.307236,293.474304 
	C193.460541,291.059357 194.241943,289.551971 194.913635,287.997192 
	C204.222610,266.449799 213.675552,244.961975 222.680496,223.288101 
	C224.490479,218.931686 226.730835,217.679260 231.167603,217.874634 
	C239.107727,218.224274 247.074310,217.973160 255.676971,217.973160 
	C254.843887,220.099274 254.328384,221.636795 253.654724,223.101624 
	C238.421204,256.225891 223.123566,289.320892 207.994965,322.492981 
	C206.479904,325.815033 204.776337,327.302795 200.964767,327.097778 
	C194.486053,326.749298 187.968063,326.823151 181.480530,327.076691 
	C178.266342,327.202301 176.846054,325.963928 175.627106,323.103119 
	C166.230850,301.050140 156.662567,279.070496 147.136551,257.072876 
	C146.432724,255.447586 145.642563,253.859680 144.491272,251.395538 
	C140.090805,261.616028 136.073151,270.918457 132.078964,280.230957 
	C125.976212,294.459625 119.802719,308.659119 113.864937,322.956421 
	C112.578552,326.053833 110.936348,327.212280 107.554268,327.084015 
	C100.400681,326.812653 93.220856,327.190369 86.072372,326.858551 
	C84.399635,326.780914 81.958862,325.316315 81.305069,323.850403 
	C66.048439,289.642273 50.987923,255.346664 35.903004,221.062012 
	C35.582088,220.332611 35.399536,219.542328 34.905464,218.018997 
	C45.305058,218.018997 55.210636,217.871231 65.099800,218.206863 
	C66.329788,218.248611 67.890648,220.673950 68.592880,222.299500 
	C78.033081,244.151947 87.345406,266.059631 96.699684,287.949249 
	C97.337654,289.442139 98.057411,290.900055 99.146935,293.256104 
	C100.267921,290.959564 101.084129,289.451355 101.758041,287.882050 
	C111.151291,266.008240 120.608757,244.161163 129.814911,222.208740 
	C131.223297,218.850418 133.022263,217.785202 136.501160,217.901978 
	C143.657181,218.142136 150.826782,217.977448 158.430450,217.987793 
z"/>
<path fill="#FEFEFF" opacity="1.000000" stroke="none" 
	d="
M181.001160,136.999954 
	C181.001160,144.788101 181.001160,152.076263 181.001160,159.677826 
	C170.565674,159.677826 160.671860,159.677826 150.427597,159.677826 
	C150.241180,157.039413 150.069336,154.607452 149.841690,151.385727 
	C148.072052,152.251160 146.687790,152.945450 145.289185,153.609497 
	C125.383163,163.061020 104.617615,165.086288 83.463745,159.374329 
	C54.645782,151.592926 39.094040,126.709206 43.434525,96.605698 
	C47.500313,68.407356 66.768639,50.634335 95.192383,48.921589 
	C114.275841,47.771667 132.381958,50.589828 149.065109,63.223389 
	C149.065109,57.381321 149.064301,52.495121 149.065292,47.608921 
	C149.066818,39.944637 148.947784,32.276543 149.187683,24.619705 
	C149.229309,23.291285 150.759323,20.903370 151.655151,20.877882 
	C161.264664,20.604467 170.884857,20.707676 181.001160,20.707676 
	C181.001160,59.592949 181.001160,98.046463 181.001160,136.999954 
M134.598221,78.782829 
	C122.420006,73.079880 109.811615,72.564766 97.062386,76.198486 
	C82.601822,80.319962 74.531960,90.980736 74.380722,105.461502 
	C74.228195,120.065300 81.960709,130.806473 96.214424,135.400452 
	C107.326042,138.981705 118.522102,138.981644 129.598526,135.191650 
	C141.679504,131.057953 149.423111,122.927177 150.853210,109.990334 
	C152.343262,96.511154 147.622009,85.787971 134.598221,78.782829 
z"/>
<path fill="#FEFEFF" opacity="1.000000" stroke="none" 
	d="
M339.056641,78.984711 
	C344.420532,88.282745 347.094604,97.891342 347.208832,108.322807 
	C347.253143,112.368446 345.855469,113.357468 342.046570,113.345779 
	C310.738831,113.249695 279.430542,113.328293 248.122437,113.353493 
	C245.977554,113.355225 243.832672,113.353714 240.438202,113.353714 
	C242.024857,117.077812 242.928635,120.209305 244.575943,122.882629 
	C250.303787,132.177994 259.263916,137.279953 269.639618,138.383423 
	C278.927094,139.371140 288.493530,138.668854 297.846283,137.769852 
	C303.707855,137.206436 308.758728,133.945251 312.339325,128.855469 
	C312.982147,127.941704 314.432281,127.087662 315.520447,127.074173 
	C326.162323,126.942284 336.806427,126.994713 348.004028,126.994713 
	C346.574066,133.352829 343.261597,138.031296 339.086243,142.119781 
	C328.731598,152.259033 315.920807,157.613632 301.954285,160.294220 
	C282.435486,164.040421 263.136810,163.130707 244.484955,155.844437 
	C222.712433,147.339081 210.249954,129.571503 209.999985,107.336288 
	C209.722305,82.638588 220.993591,64.810097 243.380035,55.578716 
	C261.567322,48.078907 280.516541,46.502800 299.709656,50.753368 
	C316.579651,54.489437 329.710052,63.906391 339.056641,78.984711 
M300.483948,93.851898 
	C304.761200,93.851898 309.038452,93.851898 313.739288,93.851898 
	C313.126465,87.465149 310.024933,83.324898 305.814545,79.898155 
	C294.786285,70.922409 281.931000,70.718864 268.779633,72.564949 
	C260.357544,73.747177 252.501785,76.548912 246.961731,83.429924 
	C244.714737,86.220779 243.299774,89.681503 240.929749,93.851776 
	C261.565979,93.851776 280.527985,93.851776 300.483948,93.851898 
z"/>
<path fill="#FEFEFF" opacity="1.000000" stroke="none" 
	d="
M312.632416,302.524170 
	C325.157135,307.539093 337.638916,307.834930 350.290985,305.037964 
	C356.302551,303.708984 361.578003,301.132812 365.298859,295.907379 
	C365.954041,294.987244 367.377991,294.091644 368.458221,294.077911 
	C379.108490,293.942688 389.761108,293.996216 401.001099,293.996216 
	C399.573669,300.342194 396.272064,305.016968 392.103760,309.102356 
	C381.745056,319.254974 368.924713,324.613739 354.947266,327.295685 
	C335.412750,331.043915 316.099670,330.129761 297.436829,322.825928 
	C275.652161,314.300354 263.231018,296.536407 262.999756,274.236481 
	C262.743896,249.564209 274.060516,231.601868 296.524323,222.537903 
	C316.412445,214.513184 337.033630,212.856812 357.704285,219.129440 
	C383.082245,226.830536 400.015167,249.677795 400.217194,274.846252 
	C400.253723,279.397858 398.762054,280.381897 394.516388,280.363892 
	C363.185150,280.230896 331.852936,280.328674 300.521027,280.353546 
	C298.555573,280.355103 296.590088,280.353760 293.708435,280.353760 
	C296.498016,291.347656 302.889374,298.088776 312.632416,302.524170 
M302.637451,260.851898 
	C323.881317,260.851898 345.125214,260.851898 366.731964,260.851898 
	C365.900787,253.374466 361.889801,248.923691 356.728516,245.307510 
	C343.467102,236.016144 317.031372,236.549500 304.138306,246.368073 
	C299.557007,249.856918 296.249420,254.237198 294.740479,260.851746 
	C297.494598,260.851746 299.590210,260.851746 302.637451,260.851898 
z"/>
<path fill="#FEFEFF" opacity="1.000000" stroke="none" 
	d="
M109.004364,436.132507 
	C110.135727,414.206146 120.330093,398.540833 139.865829,389.781525 
	C161.302628,380.169830 183.675751,378.336975 206.088272,385.985962 
	C230.305008,394.250671 246.017090,416.564240 246.218613,440.863983 
	C246.256561,445.438354 244.720001,446.379578 240.501633,446.362183 
	C209.179672,446.232819 177.856796,446.328766 146.534195,446.353607 
	C144.567322,446.355164 142.600449,446.353760 139.741486,446.353760 
	C141.660507,454.480774 145.588593,460.338654 151.782806,464.625702 
	C162.465714,472.019348 174.546860,473.513733 187.124954,472.457947 
	C194.485519,471.840118 202.572815,471.361053 207.465073,465.588409 
	C212.228439,459.967865 217.473724,459.758484 223.650803,459.924805 
	C231.263428,460.129700 238.885773,459.973724 247.089905,459.973724 
	C245.067657,467.657654 240.800247,473.036194 235.418518,477.613159 
	C225.387833,486.144012 213.564606,490.919403 200.786011,493.346832 
	C182.808243,496.761841 164.959778,496.155273 147.516708,490.310059 
	C121.841042,481.706024 108.983086,463.638031 109.004364,436.132507 
M171.766357,405.003784 
	C154.030518,406.966309 141.624802,415.762695 141.585770,426.526276 
	C165.161316,426.526276 188.735306,426.526276 212.324722,426.526276 
	C212.006790,420.537750 209.125778,415.916809 203.238617,411.654602 
	C194.033371,404.990173 183.567291,404.082855 171.766357,405.003784 
z"/>
<path fill="#FDFDFE" opacity="1.000000" stroke="none" 
	d="
M409.018677,49.642052 
	C413.410400,50.384933 417.656128,50.712757 421.906830,50.952763 
	C423.697266,51.053860 425.498199,50.969604 427.648010,50.969604 
	C427.648010,58.535507 427.648010,65.611641 427.648010,73.487045 
	C422.841949,73.487045 418.063049,73.629753 413.297455,73.439415 
	C409.827332,73.300812 408.652527,74.649361 408.682465,78.097771 
	C408.814117,93.255699 408.670624,108.415848 408.766846,123.574303 
	C408.834991,134.307785 413.730072,137.459717 423.877045,133.499649 
	C425.235626,132.969421 426.545776,132.315063 428.592163,131.398453 
	C428.592163,139.337234 428.841888,146.753555 428.396057,154.127838 
	C428.298798,155.736542 425.975281,157.638031 424.238159,158.654861 
	C404.292175,170.330139 379.992889,158.372299 378.161072,135.495178 
	C377.033813,121.417267 377.489532,107.211159 377.280273,93.061935 
	C377.203918,87.898941 377.158173,82.731293 377.294556,77.570961 
	C377.374268,74.553894 376.147949,73.357094 373.176880,73.464600 
	C369.714569,73.589867 366.244232,73.493828 362.421936,73.493828 
	C362.421936,65.851936 362.421936,58.799683 362.421936,51.160801 
	C367.104858,51.160801 371.683990,51.160801 377.210785,51.160801 
	C377.210785,45.535648 376.971039,40.439171 377.343903,35.387917 
	C377.470398,33.674576 378.781219,31.096811 380.168915,30.582863 
	C389.199249,27.238312 398.399719,24.353260 408.874695,20.876310 
	C408.874695,30.775698 408.874695,39.983597 409.018677,49.642052 
z"/>
<path fill="#FEFEFE" opacity="1.000000" stroke="none" 
	d="
M306.893494,476.996155 
	C306.893463,482.450195 306.893463,487.405334 306.893463,492.673798 
	C295.860229,492.673798 285.432831,492.673798 274.533203,492.673798 
	C274.533203,456.761444 274.533203,420.859222 274.533203,384.464020 
	C284.225525,384.464020 294.109711,384.464020 304.640747,384.464020 
	C304.640747,389.679657 304.640747,395.069489 304.640747,400.459320 
	C314.460663,384.516541 329.848694,382.208862 346.131195,381.665985 
	C349.622040,381.549591 351.348969,382.221222 351.188751,386.227112 
	C350.909241,393.215454 350.949280,400.228485 351.180817,407.220398 
	C351.297058,410.730438 349.945892,411.541138 346.628021,411.961761 
	C338.913239,412.939728 331.017181,413.760681 323.678375,416.138397 
	C312.174011,419.865692 307.003052,427.977356 306.919678,439.999634 
	C306.835297,452.164978 306.896210,464.331329 306.893494,476.996155 
z"/>
<path fill="#FEFEFE" opacity="1.000000" stroke="none" 
	d="
M76.682831,492.989655 
	C66.752434,492.998016 57.292686,492.998016 47.384708,492.998016 
	C47.276176,490.734283 47.117779,488.958282 47.116604,487.182129 
	C47.088520,444.699219 47.151169,402.215942 46.959782,359.733826 
	C46.938366,354.980438 48.126743,353.281281 53.038010,353.541565 
	C60.514118,353.937714 68.028229,353.742065 75.522720,353.606110 
	C78.646912,353.549469 79.953087,354.485138 79.946442,357.856995 
	C79.860435,401.506012 79.915413,445.155365 79.775452,488.804108 
	C79.770973,490.199280 78.065826,491.589020 76.682831,492.989655 
z"/>
<path fill="#FFFFFF" opacity="1.000000" stroke="none" 
	d="
M439.070740,217.977142 
	C447.180298,217.977127 454.800903,217.977127 462.783905,217.977127 
	C462.783905,254.430847 462.783905,290.322693 462.783905,326.607117 
	C452.316071,326.607117 441.940063,326.607117 431.202271,326.607117 
	C431.202271,290.555237 431.202271,254.665222 431.202271,217.977142 
	C433.728241,217.977142 436.154999,217.977142 439.070740,217.977142 
z"/>
<path fill="#FDFDFE" opacity="1.000000" stroke="none" 
	d="
M461.409546,205.248383 
	C454.070709,212.930069 443.536163,214.178482 435.939392,208.533234 
	C428.226135,202.801315 428.487885,192.873093 436.636322,187.749847 
	C442.733978,183.916046 449.239777,183.770081 455.684387,186.811218 
	C463.419769,190.461472 465.559784,197.263199 461.409546,205.248383 
z"/>
<path fill="#8E8DBE" opacity="1.000000" stroke="none" 
	d="
M134.935959,78.942245 
	C147.622009,85.787971 152.343262,96.511154 150.853210,109.990334 
	C149.423111,122.927177 141.679504,131.057953 129.598526,135.191650 
	C118.522102,138.981644 107.326042,138.981705 96.214424,135.400452 
	C81.960709,130.806473 74.228195,120.065300 74.380722,105.461502 
	C74.531960,90.980736 82.601822,80.319962 97.062386,76.198486 
	C109.811615,72.564766 122.420006,73.079880 134.935959,78.942245 
z"/>
<path fill="#8F8EBF" opacity="1.000000" stroke="none" 
	d="
M299.986969,93.851837 
	C280.527985,93.851776 261.565979,93.851776 240.929749,93.851776 
	C243.299774,89.681503 244.714737,86.220779 246.961731,83.429924 
	C252.501785,76.548912 260.357544,73.747177 268.779633,72.564949 
	C281.931000,70.718864 294.786285,70.922409 305.814545,79.898155 
	C310.024933,83.324898 313.126465,87.465149 313.739288,93.851898 
	C309.038452,93.851898 304.761200,93.851898 299.986969,93.851837 
z"/>
<path fill="#8F8EBF" opacity="1.000000" stroke="none" 
	d="
M302.161652,260.851807 
	C299.590210,260.851746 297.494598,260.851746 294.740479,260.851746 
	C296.249420,254.237198 299.557007,249.856918 304.138306,246.368073 
	C317.031372,236.549500 343.467102,236.016144 356.728516,245.307510 
	C361.889801,248.923691 365.900787,253.374466 366.731964,260.851898 
	C345.125214,260.851898 323.881317,260.851898 302.161652,260.851807 
z"/>
<path fill="#8F8EBF" opacity="1.000000" stroke="none" 
	d="
M172.237457,404.986023 
	C183.567291,404.082855 194.033371,404.990173 203.238617,411.654602 
	C209.125778,415.916809 212.006790,420.537750 212.324722,426.526276 
	C188.735306,426.526276 165.161316,426.526276 141.585770,426.526276 
	C141.624802,415.762695 154.030518,406.966309 172.237457,404.986023 
z"/>
</svg>